<svg id="Calque_1" data-name="Calque 1" xmlns="http://www.w3.org/2000/svg" viewBox="0 0 141.73 141.73"><defs><style>.cls-1,.cls-3{fill:#4dc7db;}.cls-1,.cls-2,.cls-3{stroke:#fff;stroke-width:3px;}.cls-1,.cls-2{stroke-linecap:round;stroke-linejoin:round;}.cls-2{fill:#fff;}.cls-3{stroke-miterlimit:10;}</style></defs><title>pictos_octoflix</title><rect class="cls-1" x="12.61" y="10.14" width="121.41" height="71.64" rx="6.97"/><path id="_1" data-name="1" class="cls-2" d="M64.91,34c-1.11-.67-2-.15-2,1.14V56.8c0,1.3.91,1.81,2,1.15l18-10.78a1.3,1.3,0,0,0,0-2.42Z"/><path class="cls-3" d="M84.16,98.63V66.35a.89.89,0,0,0-.89-.89H62.35a.89.89,0,0,0-.9.89V98.63a.89.89,0,0,1-.89.9H49.66A.89.89,0,0,0,49,101l23.65,28.82a.89.89,0,0,0,1.38,0L97.66,101a.9.9,0,0,0-.7-1.46H85.06A.9.9,0,0,1,84.16,98.63Z"/></svg>