<svg id="Calque_1" data-name="Calque 1" xmlns="http://www.w3.org/2000/svg" viewBox="0 0 141.73 141.73"><defs><style>.cls-1{fill:#4dc7db;stroke:#fff;stroke-linecap:round;stroke-linejoin:round;stroke-width:3px;}.cls-2{fill:#fff;}</style></defs><title>pictos_octoflix</title><path class="cls-1" d="M29.32,72.67a43,43,0,0,1,43-42.91,46.29,46.29,0,0,1,5.47.34V22.55L93,36,77.82,49.42V41.2a32.9,32.9,0,0,0-5.47-.49,32,32,0,1,0,21.16,8.15l7.34-8.16a42.91,42.91,0,1,1-71.53,32Z"/><path class="cls-2" d="M47.11,71.42h6v-6h3.55v6h6V75h-6v6H53.06V75h-6Z"/><path class="cls-2" d="M72.36,66.52l-4,3.52L66,67.28l6.52-5.51h4v20H72.36Z"/><path class="cls-2" d="M81.87,71.76a20.34,20.34,0,0,1,.32-3.61,10.6,10.6,0,0,1,1.16-3.33,6.89,6.89,0,0,1,2.27-2.44,7.61,7.61,0,0,1,7.33,0,7,7,0,0,1,2.28,2.44,10.59,10.59,0,0,1,1.15,3.33,19.91,19.91,0,0,1,0,7.22,10.42,10.42,0,0,1-1.15,3.33A7,7,0,0,1,93,81.15a7.61,7.61,0,0,1-7.33,0,6.84,6.84,0,0,1-2.27-2.45,10.43,10.43,0,0,1-1.16-3.33A20.26,20.26,0,0,1,81.87,71.76Zm4.23,0c0,.53,0,1.16.07,1.89a9.23,9.23,0,0,0,.38,2.12,4.54,4.54,0,0,0,.94,1.72,2.32,2.32,0,0,0,1.8.71,2.28,2.28,0,0,0,1.77-.71,4.2,4.2,0,0,0,1-1.72,8.72,8.72,0,0,0,.38-2.12c0-.73.08-1.36.08-1.89s0-1.15-.08-1.89A8.64,8.64,0,0,0,92,67.76a4.2,4.2,0,0,0-1-1.72,2.28,2.28,0,0,0-1.77-.71,2.32,2.32,0,0,0-1.8.71,4.54,4.54,0,0,0-.94,1.72,9.15,9.15,0,0,0-.38,2.11C86.12,70.61,86.1,71.24,86.1,71.76Z"/></svg>