<svg id="Calque_1" data-name="Calque 1" xmlns="http://www.w3.org/2000/svg" viewBox="0 0 141.73 141.73"><defs><style>.cls-1{fill:#4dc7db;stroke:#fff;stroke-linecap:round;stroke-linejoin:round;stroke-width:3px;}.cls-2{fill:#fff;}</style></defs><title>pictos_octoflix</title><path class="cls-1" d="M28,74.67A43,43,0,0,1,71,31.76a46.16,46.16,0,0,1,5.47.34V24.55L91.62,38,76.45,51.42V43.2A32.9,32.9,0,0,0,71,42.71a32.06,32.06,0,1,0,21.16,8.15l7.34-8.16A42.91,42.91,0,1,1,28,74.67Z"/><path class="cls-2" d="M57.52,78.5H50.46V75.05h7.06Z"/><path class="cls-2" d="M66.5,68.43,62.43,72,60,69.2l6.63-5.6h4V83.92H66.5Z"/><path class="cls-2" d="M76.17,73.76a20.13,20.13,0,0,1,.34-3.67,10.72,10.72,0,0,1,1.17-3.39A7,7,0,0,1,80,64.22a7.73,7.73,0,0,1,7.46,0,7,7,0,0,1,2.31,2.48,10.73,10.73,0,0,1,1.18,3.39,20.63,20.63,0,0,1,0,7.35,10.59,10.59,0,0,1-1.18,3.38,6.87,6.87,0,0,1-2.31,2.48,7.66,7.66,0,0,1-7.46,0,7,7,0,0,1-2.31-2.48,10.58,10.58,0,0,1-1.17-3.38A20.24,20.24,0,0,1,76.17,73.76Zm4.31,0c0,.54,0,1.18.07,1.93a9.6,9.6,0,0,0,.39,2.15,4.57,4.57,0,0,0,1,1.75,2.67,2.67,0,0,0,3.63,0,4.46,4.46,0,0,0,1-1.75,9.6,9.6,0,0,0,.39-2.15c0-.75.07-1.39.07-1.93s0-1.17-.07-1.92a9.5,9.5,0,0,0-.39-2.15,4.46,4.46,0,0,0-1-1.75,2.65,2.65,0,0,0-3.63,0,4.57,4.57,0,0,0-1,1.75,9.5,9.5,0,0,0-.39,2.15C80.5,72.59,80.48,73.23,80.48,73.76Z"/></svg>