<svg id="Calque_1" data-name="Calque 1" xmlns="http://www.w3.org/2000/svg" viewBox="0 0 141.73 141.73"><defs><style>.cls-1{fill:none;}.cls-1,.cls-2{stroke:#fff;stroke-linecap:round;stroke-linejoin:round;stroke-width:3px;}.cls-2{fill:#4dc7db;}</style></defs><title>pictos_octoflix</title><path class="cls-1" d="M86.32,85.24c4.28-3.13,6.84-8.68,6.84-14.86A18.91,18.91,0,0,0,87.92,56.9"/><path class="cls-2" d="M22.88,86l20.69.14,22.17,18.47a2,2,0,0,0,3.31-1.55V36.43a2,2,0,0,0-3.31-1.55L43.56,53.36H22.9a2.19,2.19,0,0,0-2.19,2.18V83.83A2.19,2.19,0,0,0,22.88,86Z"/><path class="cls-1" d="M96.82,98.16c7.61-6,12.15-16.38,12.15-27.78,0-10.82-4.2-20.93-11.23-27"/></svg>