<svg id="Calque_1" data-name="Calque 1" xmlns="http://www.w3.org/2000/svg" viewBox="0 0 770.35 702"><defs><style>.cls-1{fill:#1f3262;}.cls-2{fill:#263967;}</style></defs><title>tete_octo</title><path class="cls-1" d="M750.55,87.56c-22.72-2.21-41.9,7.59-57.24,29.5-9.71,25.2-7.07,46.59,7.49,64.47,10.09,12.35,23,19.32,38.69,21a54.67,54.67,0,0,0,42-12.75q26.58-21.9,19.58-61.92Q784.74,91,750.55,87.56Z" transform="translate(-32.19 -39)"/><path class="cls-1" d="M554.49,302.17a58.07,58.07,0,0,0-16.5-14,56.68,56.68,0,0,0-22.35-6.83Q491.9,279,473.79,293.87a58.09,58.09,0,0,0-7.93,81.39,57.41,57.41,0,0,0,81,8,54.84,54.84,0,0,0,20.59-38.87c0-.29.06-.59.08-.89Q569.36,320.37,554.49,302.17Z" transform="translate(-32.19 -39)"/><path class="cls-2" d="M399.29,39.09C200.89,34.84,36.58,188.5,32.27,382.3s153,354.37,351.37,358.61S746.39,591.49,750.69,397.68,597.66,43.36,399.29,39.09ZM179.78,402.92a181,181,0,0,1-.85-22.42c1.45-64.83,35.85-121.4,87.32-154.93a215.34,215.34,0,0,1,130-39.83c117.2,2.47,210.1,96.9,207.57,210.81S504.23,600.8,387.07,598.34C275.21,596,185.46,509.84,179.78,402.92Z" transform="translate(-32.19 -39)"/></svg>